<svg width="156" height="34" viewBox="0 0 156 34" fill="none" xmlns="http://www.w3.org/2000/svg">
<path d="M12.6172 4.75781V8.3418H12.2656C12.0573 7.51497 11.8262 6.92253 11.5723 6.56445C11.3184 6.19987 10.9701 5.91016 10.5273 5.69531C10.2799 5.57812 9.84701 5.51953 9.22852 5.51953H8.24219V15.7344C8.24219 16.4115 8.27799 16.8346 8.34961 17.0039C8.42773 17.1732 8.57422 17.3229 8.78906 17.4531C9.01042 17.5768 9.3099 17.6387 9.6875 17.6387H10.127V18H3.19336V17.6387H3.63281C4.01693 17.6387 4.32617 17.5703 4.56055 17.4336C4.72982 17.3424 4.86328 17.1862 4.96094 16.9648C5.03255 16.8086 5.06836 16.3984 5.06836 15.7344V5.51953H4.11133C3.2194 5.51953 2.57161 5.70833 2.16797 6.08594C1.60156 6.61328 1.24349 7.36523 1.09375 8.3418H0.722656V4.75781H12.6172ZM25.9668 13.3516L25.4688 18H13.7109V17.6387H14.1504C14.5345 17.6387 14.8438 17.5703 15.0781 17.4336C15.2474 17.3424 15.3776 17.1862 15.4688 16.9648C15.5404 16.8086 15.5762 16.3984 15.5762 15.7344V7.02344C15.5762 6.34635 15.5404 5.92318 15.4688 5.75391C15.3971 5.58464 15.2507 5.43815 15.0293 5.31445C14.8145 5.18424 14.5215 5.11914 14.1504 5.11914H13.7109V4.75781H20.7715V5.11914H20.1953C19.8112 5.11914 19.502 5.1875 19.2676 5.32422C19.0983 5.41536 18.9648 5.57161 18.8672 5.79297C18.7956 5.94922 18.7598 6.35938 18.7598 7.02344V15.4609C18.7598 16.138 18.7988 16.571 18.877 16.7598C18.9551 16.9421 19.1081 17.0788 19.3359 17.1699C19.4987 17.2285 19.8926 17.2578 20.5176 17.2578H21.6211C22.3242 17.2578 22.9102 17.1341 23.3789 16.8867C23.8477 16.6393 24.2513 16.2487 24.5898 15.7148C24.9349 15.181 25.2604 14.3932 25.5664 13.3516H25.9668ZM35 14.2305H30.3223L29.7656 15.5195C29.5833 15.9492 29.4922 16.304 29.4922 16.584C29.4922 16.9551 29.6419 17.2285 29.9414 17.4043C30.1172 17.5085 30.5501 17.5866 31.2402 17.6387V18H26.8359V17.6387C27.3112 17.5671 27.7018 17.3717 28.0078 17.0527C28.3138 16.7272 28.6914 16.0599 29.1406 15.0508L33.877 4.48438H34.0625L38.8379 15.3438C39.2936 16.3724 39.668 17.0202 39.9609 17.2871C40.1823 17.4889 40.4948 17.6061 40.8984 17.6387V18H34.4922V17.6387H34.7559C35.2702 17.6387 35.6315 17.5671 35.8398 17.4238C35.9831 17.3197 36.0547 17.1699 36.0547 16.9746C36.0547 16.8574 36.0352 16.737 35.9961 16.6133C35.9831 16.5547 35.8854 16.3105 35.7031 15.8809L35 14.2305ZM34.668 13.5078L32.6953 8.94727L30.6641 13.5078H34.668ZM54.4141 4.45508L54.5215 8.86914H54.1211C53.9323 7.76237 53.4668 6.8737 52.7246 6.20312C51.9889 5.52604 51.1914 5.1875 50.332 5.1875C49.668 5.1875 49.1406 5.36654 48.75 5.72461C48.3659 6.07617 48.1738 6.48307 48.1738 6.94531C48.1738 7.23828 48.2422 7.4987 48.3789 7.72656C48.5677 8.03255 48.8704 8.33529 49.2871 8.63477C49.5931 8.84961 50.2995 9.23047 51.4062 9.77734C52.9557 10.5391 54.0007 11.2585 54.541 11.9355C55.0749 12.6126 55.3418 13.3874 55.3418 14.2598C55.3418 15.3665 54.9089 16.3203 54.043 17.1211C53.1836 17.9154 52.0898 18.3125 50.7617 18.3125C50.3451 18.3125 49.9512 18.2702 49.5801 18.1855C49.209 18.1009 48.7435 17.9414 48.1836 17.707C47.8711 17.5768 47.6139 17.5117 47.4121 17.5117C47.2428 17.5117 47.0638 17.5768 46.875 17.707C46.6862 17.8372 46.5332 18.0358 46.416 18.3027H46.0547V13.3027H46.416C46.7025 14.709 47.2526 15.7832 48.0664 16.5254C48.8867 17.2611 49.7689 17.6289 50.7129 17.6289C51.4421 17.6289 52.0215 17.4303 52.4512 17.0332C52.8874 16.6361 53.1055 16.1738 53.1055 15.6465C53.1055 15.334 53.0208 15.0312 52.8516 14.7383C52.6888 14.4453 52.4382 14.1686 52.0996 13.9082C51.7611 13.6413 51.1621 13.2962 50.3027 12.873C49.0983 12.2806 48.2324 11.776 47.7051 11.3594C47.1777 10.9427 46.7708 10.4772 46.4844 9.96289C46.2044 9.44857 46.0645 8.88216 46.0645 8.26367C46.0645 7.20898 46.4518 6.31055 47.2266 5.56836C48.0013 4.82617 48.9779 4.45508 50.1562 4.45508C50.5859 4.45508 51.0026 4.50716 51.4062 4.61133C51.7122 4.68945 52.0833 4.83594 52.5195 5.05078C52.9622 5.25911 53.2715 5.36328 53.4473 5.36328C53.6165 5.36328 53.75 5.3112 53.8477 5.20703C53.9453 5.10286 54.0365 4.85221 54.1211 4.45508H54.4141ZM56.6211 4.75781H63.457V5.11914H63.1152C62.6009 5.11914 62.2461 5.17448 62.0508 5.28516C61.862 5.38932 61.7253 5.53581 61.6406 5.72461C61.5625 5.91341 61.5234 6.38542 61.5234 7.14062V13.625C61.5234 14.8099 61.6113 15.5944 61.7871 15.9785C61.9694 16.3626 62.2656 16.6816 62.6758 16.9355C63.0859 17.1895 63.6035 17.3164 64.2285 17.3164C64.9447 17.3164 65.5534 17.1569 66.0547 16.8379C66.5625 16.5124 66.9401 16.0664 67.1875 15.5C67.4414 14.9336 67.5684 13.9473 67.5684 12.541V7.14062C67.5684 6.54818 67.5065 6.125 67.3828 5.87109C67.2591 5.61719 67.1029 5.44141 66.9141 5.34375C66.6211 5.19401 66.2077 5.11914 65.6738 5.11914V4.75781H70.2539V5.11914H69.9805C69.6094 5.11914 69.3001 5.19401 69.0527 5.34375C68.8053 5.49349 68.6263 5.7181 68.5156 6.01758C68.431 6.22591 68.3887 6.60026 68.3887 7.14062V12.1699C68.3887 13.7259 68.2845 14.849 68.0762 15.5391C67.8743 16.2292 67.3763 16.8639 66.582 17.4434C65.7878 18.0228 64.7038 18.3125 63.3301 18.3125C62.1842 18.3125 61.2988 18.1595 60.6738 17.8535C59.821 17.4368 59.2188 16.903 58.8672 16.252C58.5156 15.6009 58.3398 14.7253 58.3398 13.625V7.14062C58.3398 6.37891 58.2975 5.9069 58.2129 5.72461C58.1283 5.53581 57.9818 5.38607 57.7734 5.27539C57.5651 5.16471 57.181 5.11263 56.6211 5.11914V4.75781ZM76.0059 12.0039V15.6758C76.0059 16.3919 76.0482 16.8444 76.1328 17.0332C76.224 17.2155 76.3802 17.362 76.6016 17.4727C76.8294 17.5833 77.2428 17.6387 77.8418 17.6387V18H71.1133V17.6387C71.7253 17.6387 72.1387 17.5833 72.3535 17.4727C72.5749 17.3555 72.7279 17.2057 72.8125 17.0234C72.9036 16.8411 72.9492 16.3919 72.9492 15.6758V7.08203C72.9492 6.36589 72.9036 5.91667 72.8125 5.73438C72.7279 5.54557 72.5749 5.39583 72.3535 5.28516C72.1322 5.17448 71.7188 5.11914 71.1133 5.11914V4.75781H76.8848C78.7858 4.75781 80.1497 5.09635 80.9766 5.77344C81.8034 6.45052 82.2168 7.29688 82.2168 8.3125C82.2168 9.17188 81.9499 9.90755 81.416 10.5195C80.8822 11.1315 80.1465 11.5482 79.209 11.7695C78.5775 11.9258 77.5098 12.0039 76.0059 12.0039ZM76.0059 5.51953V11.2422C76.2207 11.2552 76.3835 11.2617 76.4941 11.2617C77.2884 11.2617 77.9004 11.0273 78.3301 10.5586C78.7598 10.0833 78.9746 9.35091 78.9746 8.36133C78.9746 7.37826 78.7598 6.65885 78.3301 6.20312C77.9004 5.7474 77.2591 5.51953 76.4062 5.51953H76.0059ZM88.2324 12.0039V15.6758C88.2324 16.3919 88.2747 16.8444 88.3594 17.0332C88.4505 17.2155 88.6068 17.362 88.8281 17.4727C89.056 17.5833 89.4694 17.6387 90.0684 17.6387V18H83.3398V17.6387C83.9518 17.6387 84.3652 17.5833 84.5801 17.4727C84.8014 17.3555 84.9544 17.2057 85.0391 17.0234C85.1302 16.8411 85.1758 16.3919 85.1758 15.6758V7.08203C85.1758 6.36589 85.1302 5.91667 85.0391 5.73438C84.9544 5.54557 84.8014 5.39583 84.5801 5.28516C84.3587 5.17448 83.9453 5.11914 83.3398 5.11914V4.75781H89.1113C91.0124 4.75781 92.3763 5.09635 93.2031 5.77344C94.0299 6.45052 94.4434 7.29688 94.4434 8.3125C94.4434 9.17188 94.1764 9.90755 93.6426 10.5195C93.1087 11.1315 92.373 11.5482 91.4355 11.7695C90.804 11.9258 89.7363 12.0039 88.2324 12.0039ZM88.2324 5.51953V11.2422C88.4473 11.2552 88.61 11.2617 88.7207 11.2617C89.515 11.2617 90.127 11.0273 90.5566 10.5586C90.9863 10.0833 91.2012 9.35091 91.2012 8.36133C91.2012 7.37826 90.9863 6.65885 90.5566 6.20312C90.127 5.7474 89.4857 5.51953 88.6328 5.51953H88.2324ZM107.686 13.3516L107.188 18H95.4297V17.6387H95.8691C96.2533 17.6387 96.5625 17.5703 96.7969 17.4336C96.9661 17.3424 97.0964 17.1862 97.1875 16.9648C97.2591 16.8086 97.2949 16.3984 97.2949 15.7344V7.02344C97.2949 6.34635 97.2591 5.92318 97.1875 5.75391C97.1159 5.58464 96.9694 5.43815 96.748 5.31445C96.5332 5.18424 96.2402 5.11914 95.8691 5.11914H95.4297V4.75781H102.49V5.11914H101.914C101.53 5.11914 101.221 5.1875 100.986 5.32422C100.817 5.41536 100.684 5.57161 100.586 5.79297C100.514 5.94922 100.479 6.35938 100.479 7.02344V15.4609C100.479 16.138 100.518 16.571 100.596 16.7598C100.674 16.9421 100.827 17.0788 101.055 17.1699C101.217 17.2285 101.611 17.2578 102.236 17.2578H103.34C104.043 17.2578 104.629 17.1341 105.098 16.8867C105.566 16.6393 105.97 16.2487 106.309 15.7148C106.654 15.181 106.979 14.3932 107.285 13.3516H107.686ZM115.723 17.6387V18H108.799V17.6387H109.238C109.622 17.6387 109.932 17.5703 110.166 17.4336C110.335 17.3424 110.465 17.1862 110.557 16.9648C110.628 16.8086 110.664 16.3984 110.664 15.7344V7.02344C110.664 6.34635 110.628 5.92318 110.557 5.75391C110.485 5.58464 110.339 5.43815 110.117 5.31445C109.902 5.18424 109.609 5.11914 109.238 5.11914H108.799V4.75781H115.723V5.11914H115.283C114.899 5.11914 114.59 5.1875 114.355 5.32422C114.186 5.41536 114.053 5.57161 113.955 5.79297C113.883 5.94922 113.848 6.35938 113.848 7.02344V15.7344C113.848 16.4115 113.883 16.8346 113.955 17.0039C114.033 17.1732 114.18 17.3229 114.395 17.4531C114.616 17.5768 114.912 17.6387 115.283 17.6387H115.723ZM121.641 5.51953V10.9102H121.904C122.744 10.9102 123.353 10.6465 123.73 10.1191C124.108 9.5918 124.349 8.8138 124.453 7.78516H124.824V14.7188H124.453C124.375 13.9635 124.209 13.3451 123.955 12.8633C123.708 12.3815 123.418 12.0592 123.086 11.8965C122.754 11.7272 122.272 11.6426 121.641 11.6426V15.373C121.641 16.1022 121.67 16.5482 121.729 16.7109C121.794 16.8737 121.911 17.0072 122.08 17.1113C122.249 17.2155 122.523 17.2676 122.9 17.2676H123.691C124.928 17.2676 125.918 16.9811 126.66 16.4082C127.409 15.8353 127.946 14.9629 128.271 13.791H128.633L128.037 18H116.592V17.6387H117.031C117.415 17.6387 117.725 17.5703 117.959 17.4336C118.128 17.3424 118.258 17.1862 118.35 16.9648C118.421 16.8086 118.457 16.3984 118.457 15.7344V7.02344C118.457 6.42448 118.441 6.05664 118.408 5.91992C118.343 5.69206 118.223 5.51628 118.047 5.39258C117.799 5.21029 117.461 5.11914 117.031 5.11914H116.592V4.75781H127.676V8.67383H127.305C127.116 7.7168 126.849 7.02995 126.504 6.61328C126.165 6.19661 125.684 5.89062 125.059 5.69531C124.694 5.57812 124.01 5.51953 123.008 5.51953H121.641ZM134.844 11.9648V15.6758C134.844 16.3919 134.886 16.8444 134.971 17.0332C135.062 17.2155 135.218 17.362 135.439 17.4727C135.661 17.5833 136.074 17.6387 136.68 17.6387V18H129.902V17.6387C130.514 17.6387 130.928 17.5833 131.143 17.4727C131.364 17.3555 131.517 17.2057 131.602 17.0234C131.693 16.8411 131.738 16.3919 131.738 15.6758V7.08203C131.738 6.36589 131.693 5.91667 131.602 5.73438C131.517 5.54557 131.364 5.39583 131.143 5.28516C130.921 5.17448 130.508 5.11914 129.902 5.11914V4.75781H136.055C137.656 4.75781 138.828 4.86849 139.57 5.08984C140.312 5.3112 140.918 5.72135 141.387 6.32031C141.855 6.91276 142.09 7.60938 142.09 8.41016C142.09 9.38672 141.738 10.194 141.035 10.832C140.586 11.2357 139.958 11.5384 139.15 11.7402L142.334 16.2227C142.751 16.8021 143.047 17.1634 143.223 17.3066C143.49 17.5085 143.799 17.6191 144.15 17.6387V18H139.98L135.713 11.9648H134.844ZM134.844 5.4707V11.2715H135.4C136.305 11.2715 136.982 11.1901 137.432 11.0273C137.881 10.8581 138.232 10.5586 138.486 10.1289C138.747 9.69271 138.877 9.1263 138.877 8.42969C138.877 7.42057 138.639 6.67513 138.164 6.19336C137.695 5.71159 136.937 5.4707 135.889 5.4707H134.844ZM153.379 4.45508L153.486 8.86914H153.086C152.897 7.76237 152.432 6.8737 151.689 6.20312C150.954 5.52604 150.156 5.1875 149.297 5.1875C148.633 5.1875 148.105 5.36654 147.715 5.72461C147.331 6.07617 147.139 6.48307 147.139 6.94531C147.139 7.23828 147.207 7.4987 147.344 7.72656C147.533 8.03255 147.835 8.33529 148.252 8.63477C148.558 8.84961 149.264 9.23047 150.371 9.77734C151.921 10.5391 152.965 11.2585 153.506 11.9355C154.04 12.6126 154.307 13.3874 154.307 14.2598C154.307 15.3665 153.874 16.3203 153.008 17.1211C152.148 17.9154 151.055 18.3125 149.727 18.3125C149.31 18.3125 148.916 18.2702 148.545 18.1855C148.174 18.1009 147.708 17.9414 147.148 17.707C146.836 17.5768 146.579 17.5117 146.377 17.5117C146.208 17.5117 146.029 17.5768 145.84 17.707C145.651 17.8372 145.498 18.0358 145.381 18.3027H145.02V13.3027H145.381C145.667 14.709 146.217 15.7832 147.031 16.5254C147.852 17.2611 148.734 17.6289 149.678 17.6289C150.407 17.6289 150.986 17.4303 151.416 17.0332C151.852 16.6361 152.07 16.1738 152.07 15.6465C152.07 15.334 151.986 15.0312 151.816 14.7383C151.654 14.4453 151.403 14.1686 151.064 13.9082C150.726 13.6413 150.127 13.2962 149.268 12.873C148.063 12.2806 147.197 11.776 146.67 11.3594C146.143 10.9427 145.736 10.4772 145.449 9.96289C145.169 9.44857 145.029 8.88216 145.029 8.26367C145.029 7.20898 145.417 6.31055 146.191 5.56836C146.966 4.82617 147.943 4.45508 149.121 4.45508C149.551 4.45508 149.967 4.50716 150.371 4.61133C150.677 4.68945 151.048 4.83594 151.484 5.05078C151.927 5.25911 152.236 5.36328 152.412 5.36328C152.581 5.36328 152.715 5.3112 152.812 5.20703C152.91 5.10286 153.001 4.85221 153.086 4.45508H153.379Z" fill="#232323"/>
<path d="M57.0908 30.208H54.2441V29.1973H57.0908V30.208ZM60.0547 25.7598V28.4551H60.1865C60.6064 28.4551 60.9108 28.3232 61.0996 28.0596C61.2884 27.7959 61.4089 27.4069 61.4609 26.8926H61.6465V30.3594H61.4609C61.4219 29.9818 61.3389 29.6725 61.2119 29.4316C61.0882 29.1908 60.9434 29.0296 60.7773 28.9482C60.6113 28.8636 60.3704 28.8213 60.0547 28.8213V30.6865C60.0547 31.0511 60.0693 31.2741 60.0986 31.3555C60.1312 31.4368 60.1898 31.5036 60.2744 31.5557C60.359 31.6077 60.4958 31.6338 60.6846 31.6338H61.0801C61.6986 31.6338 62.1934 31.4906 62.5645 31.2041C62.9388 30.9176 63.2074 30.4814 63.3701 29.8955H63.5508L63.2529 32H57.5303V31.8193H57.75C57.9421 31.8193 58.0967 31.7852 58.2139 31.7168C58.2985 31.6712 58.3636 31.5931 58.4092 31.4824C58.445 31.4043 58.4629 31.1992 58.4629 30.8672V26.5117C58.4629 26.2122 58.4548 26.0283 58.4385 25.96C58.4059 25.846 58.3457 25.7581 58.2578 25.6963C58.1341 25.6051 57.9648 25.5596 57.75 25.5596H57.5303V25.3789H63.0723V27.3369H62.8867C62.7923 26.8584 62.6589 26.515 62.4863 26.3066C62.3171 26.0983 62.0762 25.9453 61.7637 25.8477C61.5814 25.7891 61.2396 25.7598 60.7383 25.7598H60.0547ZM68.6973 25.2275L68.751 27.4346H68.5508C68.4564 26.8812 68.2236 26.4368 67.8525 26.1016C67.4847 25.763 67.0859 25.5938 66.6562 25.5938C66.3242 25.5938 66.0605 25.6833 65.8652 25.8623C65.6732 26.0381 65.5771 26.2415 65.5771 26.4727C65.5771 26.6191 65.6113 26.7493 65.6797 26.8633C65.7741 27.0163 65.9255 27.1676 66.1338 27.3174C66.2868 27.4248 66.64 27.6152 67.1934 27.8887C67.9681 28.2695 68.4906 28.6292 68.7607 28.9678C69.0277 29.3063 69.1611 29.6937 69.1611 30.1299C69.1611 30.6833 68.9447 31.1602 68.5117 31.5605C68.082 31.9577 67.5352 32.1562 66.8711 32.1562C66.6628 32.1562 66.4658 32.1351 66.2803 32.0928C66.0947 32.0505 65.862 31.9707 65.582 31.8535C65.4258 31.7884 65.2972 31.7559 65.1963 31.7559C65.1117 31.7559 65.0221 31.7884 64.9277 31.8535C64.8333 31.9186 64.7568 32.0179 64.6982 32.1514H64.5176V29.6514H64.6982C64.8415 30.3545 65.1165 30.8916 65.5234 31.2627C65.9336 31.6305 66.3747 31.8145 66.8467 31.8145C67.2113 31.8145 67.501 31.7152 67.7158 31.5166C67.9339 31.318 68.043 31.0869 68.043 30.8232C68.043 30.667 68.0007 30.5156 67.916 30.3691C67.8346 30.2227 67.7093 30.0843 67.54 29.9541C67.3708 29.8206 67.0713 29.6481 66.6416 29.4365C66.0394 29.1403 65.6064 28.888 65.3428 28.6797C65.0791 28.4714 64.8757 28.2386 64.7324 27.9814C64.5924 27.7243 64.5225 27.4411 64.5225 27.1318C64.5225 26.6045 64.7161 26.1553 65.1035 25.7842C65.4909 25.4131 65.9792 25.2275 66.5684 25.2275C66.7832 25.2275 66.9915 25.2536 67.1934 25.3057C67.3464 25.3447 67.5319 25.418 67.75 25.5254C67.9714 25.6296 68.126 25.6816 68.2139 25.6816C68.2985 25.6816 68.3652 25.6556 68.4141 25.6035C68.4629 25.5514 68.5085 25.4261 68.5508 25.2275H68.6973ZM75.875 25.3789V27.1709H75.6992C75.5951 26.7575 75.4795 26.4613 75.3525 26.2822C75.2256 26.0999 75.0514 25.9551 74.8301 25.8477C74.7064 25.7891 74.4899 25.7598 74.1807 25.7598H73.6875V30.8672C73.6875 31.2057 73.7054 31.4173 73.7412 31.502C73.7803 31.5866 73.8535 31.6615 73.9609 31.7266C74.0716 31.7884 74.2214 31.8193 74.4102 31.8193H74.6299V32H71.1631V31.8193H71.3828C71.5749 31.8193 71.7295 31.7852 71.8467 31.7168C71.9313 31.6712 71.998 31.5931 72.0469 31.4824C72.0827 31.4043 72.1006 31.1992 72.1006 30.8672V25.7598H71.6221C71.1761 25.7598 70.8522 25.8542 70.6504 26.043C70.3672 26.3066 70.1882 26.6826 70.1133 27.1709H69.9277V25.3789H75.875ZM82.6914 32H78.7949V31.8926C79.9896 30.4701 80.7139 29.513 80.9678 29.0215C81.2249 28.5299 81.3535 28.0498 81.3535 27.5811C81.3535 27.2393 81.2477 26.9561 81.0361 26.7314C80.8245 26.5036 80.5658 26.3896 80.2598 26.3896C79.7585 26.3896 79.3695 26.6403 79.0928 27.1416L78.9121 27.0781C79.0879 26.4531 79.3548 25.9909 79.7129 25.6914C80.071 25.3919 80.4844 25.2422 80.9531 25.2422C81.2884 25.2422 81.5944 25.3203 81.8711 25.4766C82.1478 25.6328 82.3643 25.8477 82.5205 26.1211C82.6768 26.3913 82.7549 26.6452 82.7549 26.8828C82.7549 27.3158 82.6344 27.7552 82.3936 28.2012C82.0648 28.8034 81.347 29.6432 80.2402 30.7207H81.6709C82.0225 30.7207 82.2503 30.7061 82.3545 30.6768C82.4619 30.6475 82.5498 30.5986 82.6182 30.5303C82.6865 30.4587 82.776 30.3105 82.8867 30.0859H83.0625L82.6914 32ZM88.1846 28.6895C88.1846 29.3503 88.0918 29.9671 87.9062 30.54C87.7956 30.8916 87.6458 31.1797 87.457 31.4043C87.2715 31.6289 87.0599 31.8079 86.8223 31.9414C86.5846 32.0716 86.3258 32.1367 86.0459 32.1367C85.7269 32.1367 85.4388 32.0553 85.1816 31.8926C84.9245 31.7298 84.6966 31.4971 84.498 31.1943C84.3548 30.973 84.2295 30.6784 84.1221 30.3105C83.9821 29.8125 83.9121 29.2982 83.9121 28.7676C83.9121 28.0482 84.013 27.3874 84.2148 26.7852C84.3809 26.2871 84.6331 25.9062 84.9717 25.6426C85.3102 25.3757 85.6683 25.2422 86.0459 25.2422C86.43 25.2422 86.7881 25.374 87.1201 25.6377C87.4554 25.8981 87.7012 26.2497 87.8574 26.6924C88.0755 27.3011 88.1846 27.9668 88.1846 28.6895ZM86.6807 28.6797C86.6807 27.5208 86.6742 26.8454 86.6611 26.6533C86.6286 26.2008 86.5505 25.8949 86.4268 25.7354C86.3454 25.6312 86.2135 25.5791 86.0312 25.5791C85.8913 25.5791 85.7806 25.6182 85.6992 25.6963C85.5788 25.8102 85.4974 26.012 85.4551 26.3018C85.4128 26.5882 85.3916 27.5924 85.3916 29.3145C85.3916 30.252 85.4242 30.8802 85.4893 31.1992C85.5381 31.4303 85.6081 31.585 85.6992 31.6631C85.7904 31.7412 85.9108 31.7803 86.0605 31.7803C86.2233 31.7803 86.3454 31.7282 86.4268 31.624C86.5635 31.4417 86.6416 31.1602 86.6611 30.7793L86.6807 28.6797ZM92.6914 32H88.7949V31.8926C89.9896 30.4701 90.7139 29.513 90.9678 29.0215C91.2249 28.5299 91.3535 28.0498 91.3535 27.5811C91.3535 27.2393 91.2477 26.9561 91.0361 26.7314C90.8245 26.5036 90.5658 26.3896 90.2598 26.3896C89.7585 26.3896 89.3695 26.6403 89.0928 27.1416L88.9121 27.0781C89.0879 26.4531 89.3548 25.9909 89.7129 25.6914C90.071 25.3919 90.4844 25.2422 90.9531 25.2422C91.2884 25.2422 91.5944 25.3203 91.8711 25.4766C92.1478 25.6328 92.3643 25.8477 92.5205 26.1211C92.6768 26.3913 92.7549 26.6452 92.7549 26.8828C92.7549 27.3158 92.6344 27.7552 92.3936 28.2012C92.0648 28.8034 91.347 29.6432 90.2402 30.7207H91.6709C92.0225 30.7207 92.2503 30.7061 92.3545 30.6768C92.4619 30.6475 92.5498 30.5986 92.6182 30.5303C92.6865 30.4587 92.776 30.3105 92.8867 30.0859H93.0625L92.6914 32ZM98.1846 28.6895C98.1846 29.3503 98.0918 29.9671 97.9062 30.54C97.7956 30.8916 97.6458 31.1797 97.457 31.4043C97.2715 31.6289 97.0599 31.8079 96.8223 31.9414C96.5846 32.0716 96.3258 32.1367 96.0459 32.1367C95.7269 32.1367 95.4388 32.0553 95.1816 31.8926C94.9245 31.7298 94.6966 31.4971 94.498 31.1943C94.3548 30.973 94.2295 30.6784 94.1221 30.3105C93.9821 29.8125 93.9121 29.2982 93.9121 28.7676C93.9121 28.0482 94.013 27.3874 94.2148 26.7852C94.3809 26.2871 94.6331 25.9062 94.9717 25.6426C95.3102 25.3757 95.6683 25.2422 96.0459 25.2422C96.43 25.2422 96.7881 25.374 97.1201 25.6377C97.4554 25.8981 97.7012 26.2497 97.8574 26.6924C98.0755 27.3011 98.1846 27.9668 98.1846 28.6895ZM96.6807 28.6797C96.6807 27.5208 96.6742 26.8454 96.6611 26.6533C96.6286 26.2008 96.5505 25.8949 96.4268 25.7354C96.3454 25.6312 96.2135 25.5791 96.0312 25.5791C95.8913 25.5791 95.7806 25.6182 95.6992 25.6963C95.5788 25.8102 95.4974 26.012 95.4551 26.3018C95.4128 26.5882 95.3916 27.5924 95.3916 29.3145C95.3916 30.252 95.4242 30.8802 95.4893 31.1992C95.5381 31.4303 95.6081 31.585 95.6992 31.6631C95.7904 31.7412 95.9108 31.7803 96.0605 31.7803C96.2233 31.7803 96.3454 31.7282 96.4268 31.624C96.5635 31.4417 96.6416 31.1602 96.6611 30.7793L96.6807 28.6797ZM101.642 30.208H98.7949V29.1973H101.642V30.208Z" fill="#232323"/>
</svg>
