<svg width="34" height="22" viewBox="0 0 34 22" fill="none" xmlns="http://www.w3.org/2000/svg">
<path d="M17.002 2.98146C19.3729 4.84852 20.8952 7.74495 20.8952 10.9968C20.8952 14.2488 19.3729 17.1453 17.002 19.0124C14.6311 17.1453 13.1087 14.2488 13.1087 10.9968C13.1087 7.74495 14.6311 4.84852 17.002 2.98146ZM15.6979 2.10792C13.1908 4.2538 11.602 7.44148 11.602 11.0003C11.602 14.5568 13.1888 17.7428 15.6932 19.8885C14.2171 20.7195 12.5132 21.1935 10.6986 21.1935C5.06713 21.1935 0.501953 16.6283 0.501953 10.9968C0.501953 5.36547 5.06713 0.800293 10.6986 0.800293C12.5151 0.800293 14.2207 1.27531 15.6979 2.10792ZM18.3107 19.8885C20.815 17.7428 22.402 14.5568 22.402 11.0003C22.402 7.44148 20.813 4.2538 18.3059 2.10792C19.7831 1.27531 21.4888 0.800293 23.3053 0.800293C28.9367 0.800293 33.502 5.36547 33.502 10.9968C33.502 16.6283 28.9367 21.1935 23.3053 21.1935C21.4907 21.1935 19.7869 20.7195 18.3107 19.8885Z" fill="black"/>
</svg>
