<svg width="42" height="41" viewBox="0 0 42 41" fill="none" xmlns="http://www.w3.org/2000/svg">
<path d="M35.7576 26.7114C38.8516 19.384 36.0746 10.7285 29.0084 6.64888C23.9022 3.7008 17.8464 3.88718 13.069 6.61108L11.0843 3.13746C17.056 -0.267339 24.6256 -0.500319 31.0084 3.18478C39.9898 8.37014 43.4278 19.4696 39.2434 28.7238L41.927 30.2732L33.5968 34.7014L33.2668 25.2732L35.7576 26.7114ZM6.25922 14.2992C3.16526 21.6266 5.94232 30.282 13.0084 34.3616C18.1146 37.3098 24.1702 37.1234 28.9474 34.3998L30.9322 37.8732C24.9606 41.278 17.3912 41.5108 11.0084 37.8258C2.02714 32.6404 -1.41087 21.541 2.77344 12.2867L0.0898438 10.7373L8.41998 6.30914L8.7501 15.7373L6.25922 14.2992ZM23.8368 26.1622L18.18 20.5052L12.5231 26.1622L9.69472 23.3338L18.18 14.8484L23.8368 20.5052L29.4938 14.8484L32.3222 17.6768L23.8368 26.1622Z" fill="#232323"/>
</svg>
