<svg width="41" height="40" viewBox="0 0 41 40" fill="none" xmlns="http://www.w3.org/2000/svg">
<path d="M20.5098 40.0058C9.46409 40.0058 0.509766 31.0516 0.509766 20.0058C0.509766 8.96016 9.46409 0.00585938 20.5098 0.00585938C31.5554 0.00585938 40.5098 8.96016 40.5098 20.0058C40.5098 31.0516 31.5554 40.0058 20.5098 40.0058ZM13.5098 24.0058V28.0058H18.5098V32.0058H22.5098V28.0058H24.5098C27.2712 28.0058 29.5098 25.7672 29.5098 23.0058C29.5098 20.2444 27.2712 18.0058 24.5098 18.0058H16.5098C15.9575 18.0058 15.5098 17.5582 15.5098 17.0058C15.5098 16.4536 15.9575 16.0058 16.5098 16.0058H27.5098V12.0059H22.5098V8.00586H18.5098V12.0059H16.5098C13.7483 12.0059 11.5098 14.2444 11.5098 17.0058C11.5098 19.7672 13.7483 22.0058 16.5098 22.0058H24.5098C25.062 22.0058 25.5098 22.4536 25.5098 23.0058C25.5098 23.5582 25.062 24.0058 24.5098 24.0058H13.5098Z" fill="#232323"/>
</svg>
