<svg width="25" height="24" viewBox="0 0 25 24" fill="none" xmlns="http://www.w3.org/2000/svg">
<path d="M2.5 3.25V20.75H22.5V5.75H11.9823L9.48224 3.25H2.5ZM13.0177 3.25H23.75C24.4404 3.25 25 3.80965 25 4.5V22C25 22.6904 24.4404 23.25 23.75 23.25H1.25C0.55965 23.25 0 22.6904 0 22V2C0 1.30965 0.55965 0.75 1.25 0.75H10.5177L13.0177 3.25ZM10 10.125C10 11.1605 9.16054 12 8.125 12C7.08946 12 6.25 11.1605 6.25 10.125C6.25 9.08946 7.08946 8.25 8.125 8.25C9.16054 8.25 10 9.08946 10 10.125ZM20 18.25L15 10.75L6.25 18.25H20Z" fill="#888888"/>
</svg>
