<svg width="28" height="18" viewBox="0 0 28 18" fill="none" xmlns="http://www.w3.org/2000/svg">
<path d="M14.002 2.31788C15.9777 3.87377 17.2464 6.28746 17.2464 8.99737C17.2464 11.7074 15.9777 14.1211 14.002 15.677C12.0262 14.1211 10.7576 11.7074 10.7576 8.99737C10.7576 6.28746 12.0262 3.87377 14.002 2.31788ZM12.9152 1.58993C10.826 3.37817 9.50195 6.03457 9.50195 9.00024C9.50195 11.964 10.8244 14.619 12.9114 16.4071C11.6812 17.0996 10.2613 17.4946 8.74914 17.4946C4.05627 17.4946 0.251953 13.6902 0.251953 8.99737C0.251953 4.30456 4.05627 0.500244 8.74914 0.500244C10.2629 0.500244 11.6842 0.896094 12.9152 1.58993ZM15.0926 16.4071C17.1795 14.619 18.502 11.964 18.502 9.00024C18.502 6.03457 17.1779 3.37817 15.0886 1.58993C16.3196 0.896094 17.741 0.500244 19.2547 0.500244C23.9476 0.500244 27.752 4.30456 27.752 8.99737C27.752 13.6902 23.9476 17.4946 19.2547 17.4946C17.7426 17.4946 16.3227 17.0996 15.0926 16.4071Z" fill="#282828"/>
</svg>
