<svg width="30" height="30" viewBox="0 0 30 30" fill="none" xmlns="http://www.w3.org/2000/svg">
<path d="M28.125 13.9687H16.0781V1.875C16.0781 1.3125 15.6094 0.796875 15 0.796875C14.4375 0.796875 13.9219 1.26562 13.9219 1.875V13.9687H1.875C1.3125 13.9687 0.796875 14.4375 0.796875 15.0469C0.796875 15.6094 1.26562 16.125 1.875 16.125H13.9687V28.125C13.9687 28.6875 14.4375 29.2031 15.0469 29.2031C15.6094 29.2031 16.125 28.7344 16.125 28.125V16.0781H28.125C28.6875 16.0781 29.2031 15.6094 29.2031 15C29.2031 14.4375 28.6875 13.9687 28.125 13.9687Z" fill="#232323"/>
</svg>
