<svg width="30" height="30" viewBox="0 0 30 30" fill="none" xmlns="http://www.w3.org/2000/svg">
<path d="M14.6875 23.75H14.375C11.4167 23.75 8.90625 22.7188 6.84375 20.6562C4.78125 18.5938 3.75 16.0833 3.75 13.125C3.75 10.1667 4.78125 7.65625 6.84375 5.59375C8.90625 3.53125 11.4167 2.5 14.375 2.5C15.8542 2.5 17.2346 2.77583 18.5162 3.3275C19.7979 3.87917 20.9229 4.63958 21.8913 5.60875C22.8596 6.57792 23.6196 7.70292 24.1712 8.98375C24.7229 10.2646 24.9992 11.645 25 13.125C25 15.9167 24.2133 18.5104 22.64 20.9062C21.0667 23.3021 19.0825 25.1771 16.6875 26.5312C16.4792 26.6354 16.2708 26.6929 16.0625 26.7038C15.8542 26.7146 15.6667 26.6675 15.5 26.5625C15.3333 26.4583 15.1875 26.3229 15.0625 26.1562C14.9375 25.9896 14.8646 25.7917 14.8438 25.5625L14.6875 23.75ZM17.5 22.9375C18.9792 21.6875 20.1825 20.2237 21.11 18.5462C22.0375 16.8687 22.5008 15.0617 22.5 13.125C22.5 10.8542 21.7133 8.9325 20.14 7.36C18.5667 5.7875 16.645 5.00083 14.375 5C12.1042 5 10.1825 5.78667 8.61 7.36C7.0375 8.93333 6.25083 10.855 6.25 13.125C6.25 15.3958 7.03667 17.3175 8.61 18.89C10.1833 20.4625 12.105 21.2492 14.375 21.25H17.5V22.9375ZM14.3438 19.9688C14.6979 19.9688 15 19.8438 15.25 19.5938C15.5 19.3438 15.625 19.0417 15.625 18.6875C15.625 18.3333 15.5 18.0313 15.25 17.7812C15 17.5312 14.6979 17.4062 14.3438 17.4062C13.9896 17.4062 13.6875 17.5312 13.4375 17.7812C13.1875 18.0313 13.0625 18.3333 13.0625 18.6875C13.0625 19.0417 13.1875 19.3438 13.4375 19.5938C13.6875 19.8438 13.9896 19.9688 14.3438 19.9688ZM11.625 10.4688C11.8542 10.5729 12.0833 10.5783 12.3125 10.485C12.5417 10.3917 12.7292 10.2404 12.875 10.0312C13.0625 9.78125 13.2812 9.58833 13.5312 9.4525C13.7812 9.31667 14.0625 9.24917 14.375 9.25C14.875 9.25 15.2812 9.39042 15.5938 9.67125C15.9062 9.95208 16.0625 10.3117 16.0625 10.75C16.0625 11.0208 15.9842 11.2917 15.8275 11.5625C15.6708 11.8333 15.395 12.1667 15 12.5625C14.4792 13.0208 14.0938 13.4533 13.8438 13.86C13.5938 14.2667 13.4688 14.6779 13.4688 15.0938C13.4688 15.3438 13.5575 15.5575 13.735 15.735C13.9125 15.9125 14.1258 16.0008 14.375 16C14.625 16 14.8333 15.9062 15 15.7188C15.1667 15.5312 15.2917 15.3125 15.375 15.0625C15.4792 14.7083 15.6667 14.3854 15.9375 14.0938C16.2083 13.8021 16.4583 13.5417 16.6875 13.3125C17.125 12.875 17.4533 12.4375 17.6725 12C17.8917 11.5625 18.0008 11.125 18 10.6875C18 9.72917 17.6717 8.95833 17.015 8.375C16.3583 7.79167 15.4783 7.5 14.375 7.5C13.7083 7.5 13.0937 7.66167 12.5312 7.985C11.9688 8.30833 11.5104 8.75083 11.1562 9.3125C11.0312 9.54167 11.0154 9.76542 11.1088 9.98375C11.2021 10.2021 11.3742 10.3637 11.625 10.4688Z" fill="#888888"/>
</svg>
