<svg width="22" height="30" viewBox="0 0 22 30" fill="none" xmlns="http://www.w3.org/2000/svg">
<path d="M18.9219 4.125H15.3125V3.32812C15.3125 1.92187 14.1875 0.796875 12.7812 0.796875H9.17188C7.76563 0.796875 6.64063 1.92187 6.64063 3.32812V4.125H3.03125C1.67188 4.125 0.546875 5.25 0.546875 6.60938V8.01562C0.546875 9.04688 1.15625 9.89062 2.04687 10.2656L2.79688 26.4844C2.89062 28.0312 4.10938 29.2031 5.65625 29.2031H16.2031C17.75 29.2031 19.0156 27.9844 19.0625 26.4844L19.9062 10.2187C20.7969 9.84375 21.4062 8.95312 21.4062 7.96875V6.5625C21.4062 5.25 20.2812 4.125 18.9219 4.125ZM8.79687 3.32812C8.79687 3.09375 8.98438 2.90625 9.21875 2.90625H12.8281C13.0625 2.90625 13.25 3.09375 13.25 3.32812V4.125H8.84375V3.32812H8.79687ZM2.70313 6.60938C2.70313 6.42188 2.84375 6.23438 3.07813 6.23438H18.9219C19.1094 6.23438 19.2969 6.375 19.2969 6.60938V8.01562C19.2969 8.20312 19.1562 8.39062 18.9219 8.39062H3.07813C2.89063 8.39062 2.70313 8.25 2.70313 8.01562V6.60938ZM16.25 27.0937H5.75C5.32812 27.0937 5 26.7656 5 26.3906L4.25 10.5H17.7969L17.0469 26.3906C17 26.7656 16.6719 27.0937 16.25 27.0937Z" fill="#232323"/>
</svg>
