<svg width="16" height="16" viewBox="0 0 16 16" fill="none" xmlns="http://www.w3.org/2000/svg">
<path d="M8.00026 13.3329C7.91137 13.3329 7.82804 13.3191 7.75026 13.2916C7.67248 13.264 7.60026 13.2167 7.53359 13.1496L3.13359 8.74958C3.00026 8.61625 2.93359 8.45803 2.93359 8.27492C2.93359 8.09181 3.00026 7.93336 3.13359 7.79958C3.26693 7.66625 3.42248 7.59959 3.60026 7.59959C3.77804 7.59959 3.93359 7.66625 4.06693 7.79958L7.33359 11.0663V3.59958C7.33359 3.4107 7.39759 3.25514 7.52559 3.13292C7.65359 3.0107 7.81182 2.94958 8.00026 2.94958C8.18915 2.94958 8.34759 3.01359 8.47559 3.14159C8.60359 3.26959 8.66737 3.42781 8.66693 3.61625V11.0663L11.9336 7.79958C12.0669 7.66625 12.2225 7.59959 12.4003 7.59959C12.578 7.59959 12.7336 7.66625 12.8669 7.79958C13.0003 7.93292 13.0669 8.09136 13.0669 8.27492C13.0669 8.45847 13.0003 8.6167 12.8669 8.74958L8.46693 13.1496C8.40026 13.2163 8.32804 13.2636 8.25026 13.2916C8.17248 13.3196 8.08915 13.3334 8.00026 13.3329Z" fill="#D02626"/>
</svg>
