<svg width="12" height="12" viewBox="0 0 12 12" fill="none" xmlns="http://www.w3.org/2000/svg">
<path d="M5.99974 0.95004C6.08863 0.95004 6.17196 0.963818 6.24974 0.991374C6.32752 1.01893 6.39974 1.06626 6.46641 1.13337L10.8664 5.53337C10.9997 5.66671 11.0664 5.82493 11.0664 6.00804C11.0664 6.19115 10.9997 6.3496 10.8664 6.48337C10.7331 6.61671 10.5775 6.68337 10.3997 6.68337C10.222 6.68337 10.0664 6.61671 9.93307 6.48337L6.66641 3.21671L6.66641 10.6834C6.66641 10.8723 6.60241 11.0278 6.47441 11.15C6.34641 11.2723 6.18818 11.3334 5.99974 11.3334C5.81085 11.3334 5.65241 11.2694 5.52441 11.1414C5.39641 11.0134 5.33263 10.8552 5.33307 10.6667L5.33307 3.21671L2.06641 6.48337C1.93307 6.61671 1.77752 6.68337 1.59974 6.68337C1.42196 6.68337 1.26641 6.61671 1.13307 6.48337C0.99974 6.35004 0.933073 6.1916 0.933073 6.00804C0.933073 5.82448 0.99974 5.66626 1.13307 5.53337L5.53307 1.13337C5.59974 1.06671 5.67196 1.01937 5.74974 0.991374C5.82752 0.963374 5.91085 0.949596 5.99974 0.95004Z" fill="#1EB564"/>
</svg>
