<svg width="276" height="47" viewBox="0 0 276 47" fill="none" xmlns="http://www.w3.org/2000/svg">
<path d="M17.9258 1.13672V6.5127H17.3984C17.0859 5.27246 16.7393 4.38379 16.3584 3.84668C15.9775 3.2998 15.4551 2.86523 14.791 2.54297C14.4199 2.36719 13.7705 2.2793 12.8428 2.2793H11.3633V17.6016C11.3633 18.6172 11.417 19.252 11.5244 19.5059C11.6416 19.7598 11.8613 19.9844 12.1836 20.1797C12.5156 20.3652 12.9648 20.458 13.5312 20.458H14.1904V21H3.79004V20.458H4.44922C5.02539 20.458 5.48926 20.3555 5.84082 20.1504C6.09473 20.0137 6.29492 19.7793 6.44141 19.4473C6.54883 19.2129 6.60254 18.5977 6.60254 17.6016V2.2793H5.16699C3.8291 2.2793 2.85742 2.5625 2.25195 3.12891C1.40234 3.91992 0.865234 5.04785 0.640625 6.5127H0.0839844V1.13672H17.9258Z" fill="#232323"/>
<path d="M27.2129 11.4492V17.6016C27.2129 18.6172 27.2666 19.252 27.374 19.5059C27.4912 19.7598 27.7109 19.9844 28.0332 20.1797C28.3652 20.3652 28.8096 20.458 29.3662 20.458H30.0254V21H19.6396V20.458H20.2988C20.875 20.458 21.3389 20.3555 21.6904 20.1504C21.9443 20.0137 22.1396 19.7793 22.2764 19.4473C22.3838 19.2129 22.4375 18.5977 22.4375 17.6016V4.53516C22.4375 3.51953 22.3838 2.88477 22.2764 2.63086C22.1689 2.37695 21.9492 2.15723 21.6172 1.97168C21.2949 1.77637 20.8555 1.67871 20.2988 1.67871H19.6396V1.13672H30.0254V1.67871H29.3662C28.79 1.67871 28.3262 1.78125 27.9746 1.98633C27.7207 2.12305 27.5205 2.35742 27.374 2.68945C27.2666 2.92383 27.2129 3.53906 27.2129 4.53516V10.1602H34.2295V4.53516C34.2295 3.51953 34.1758 2.88477 34.0684 2.63086C33.9609 2.37695 33.7412 2.15723 33.4092 1.97168C33.0771 1.77637 32.6328 1.67871 32.0762 1.67871H31.4316V1.13672H41.8027V1.67871H41.1582C40.5723 1.67871 40.1084 1.78125 39.7666 1.98633C39.5127 2.12305 39.3125 2.35742 39.166 2.68945C39.0586 2.92383 39.0049 3.53906 39.0049 4.53516V17.6016C39.0049 18.6172 39.0586 19.252 39.166 19.5059C39.2734 19.7598 39.4932 19.9844 39.8252 20.1797C40.1572 20.3652 40.6016 20.458 41.1582 20.458H41.8027V21H31.4316V20.458H32.0762C32.6621 20.458 33.126 20.3555 33.4678 20.1504C33.7217 20.0137 33.9219 19.7793 34.0684 19.4473C34.1758 19.2129 34.2295 18.5977 34.2295 17.6016V11.4492H27.2129Z" fill="#232323"/>
<path d="M50.5332 2.2793V10.3652H50.9287C52.1885 10.3652 53.1016 9.96973 53.668 9.17871C54.2344 8.3877 54.5957 7.2207 54.752 5.67773H55.3086V16.0781H54.752C54.6348 14.9453 54.3857 14.0176 54.0049 13.2949C53.6338 12.5723 53.1992 12.0889 52.7012 11.8447C52.2031 11.5908 51.4805 11.4639 50.5332 11.4639V17.0596C50.5332 18.1533 50.5771 18.8223 50.665 19.0664C50.7627 19.3105 50.9385 19.5107 51.1924 19.667C51.4463 19.8232 51.8564 19.9014 52.4229 19.9014H53.6094C55.4648 19.9014 56.9492 19.4717 58.0625 18.6123C59.1855 17.7529 59.9912 16.4443 60.4795 14.6865H61.0215L60.1279 21H42.96V20.458H43.6191C44.1953 20.458 44.6592 20.3555 45.0107 20.1504C45.2646 20.0137 45.46 19.7793 45.5967 19.4473C45.7041 19.2129 45.7578 18.5977 45.7578 17.6016V4.53516C45.7578 3.63672 45.7334 3.08496 45.6846 2.87988C45.5869 2.53809 45.4062 2.27441 45.1426 2.08887C44.7715 1.81543 44.2637 1.67871 43.6191 1.67871H42.96V1.13672H59.5859V7.01074H59.0293C58.7461 5.5752 58.3457 4.54492 57.8281 3.91992C57.3203 3.29492 56.5977 2.83594 55.6602 2.54297C55.1133 2.36719 54.0879 2.2793 52.584 2.2793H50.5332Z" fill="#232323"/>
<path d="M88.8096 14.0273L88.0625 21H70.4258V20.458H71.085C71.6611 20.458 72.125 20.3555 72.4766 20.1504C72.7305 20.0137 72.9258 19.7793 73.0625 19.4473C73.1699 19.2129 73.2236 18.5977 73.2236 17.6016V4.53516C73.2236 3.51953 73.1699 2.88477 73.0625 2.63086C72.9551 2.37695 72.7354 2.15723 72.4033 1.97168C72.0811 1.77637 71.6416 1.67871 71.085 1.67871H70.4258V1.13672H81.0166V1.67871H80.1523C79.5762 1.67871 79.1123 1.78125 78.7607 1.98633C78.5068 2.12305 78.3066 2.35742 78.1602 2.68945C78.0527 2.92383 77.999 3.53906 77.999 4.53516V17.1914C77.999 18.207 78.0576 18.8564 78.1748 19.1396C78.292 19.4131 78.5215 19.6182 78.8633 19.7549C79.1074 19.8428 79.6982 19.8867 80.6357 19.8867H82.291C83.3457 19.8867 84.2246 19.7012 84.9277 19.3301C85.6309 18.959 86.2363 18.373 86.7441 17.5723C87.2617 16.7715 87.75 15.5898 88.209 14.0273H88.8096Z" fill="#232323"/>
<path d="M102.359 15.3457H95.3428L94.5078 17.2793C94.2344 17.9238 94.0977 18.4561 94.0977 18.876C94.0977 19.4326 94.3223 19.8428 94.7715 20.1064C95.0352 20.2627 95.6846 20.3799 96.7197 20.458V21H90.1133V20.458C90.8262 20.3506 91.4121 20.0576 91.8711 19.5791C92.3301 19.0908 92.8965 18.0898 93.5703 16.5762L100.675 0.726562H100.953L108.116 17.0156C108.8 18.5586 109.361 19.5303 109.801 19.9307C110.133 20.2334 110.602 20.4092 111.207 20.458V21H101.598V20.458H101.993C102.765 20.458 103.307 20.3506 103.619 20.1357C103.834 19.9795 103.941 19.7549 103.941 19.4619C103.941 19.2861 103.912 19.1055 103.854 18.9199C103.834 18.832 103.688 18.4658 103.414 17.8213L102.359 15.3457ZM101.861 14.2617L98.9023 7.4209L95.8555 14.2617H101.861Z" fill="#232323"/>
<path d="M125.65 0.682617L125.812 7.30371H125.211C124.928 5.64355 124.229 4.31055 123.116 3.30469C122.013 2.28906 120.816 1.78125 119.527 1.78125C118.531 1.78125 117.74 2.0498 117.154 2.58691C116.578 3.11426 116.29 3.72461 116.29 4.41797C116.29 4.85742 116.393 5.24805 116.598 5.58984C116.881 6.04883 117.335 6.50293 117.96 6.95215C118.419 7.27441 119.479 7.8457 121.139 8.66602C123.463 9.80859 125.03 10.8877 125.841 11.9033C126.642 12.9189 127.042 14.0811 127.042 15.3896C127.042 17.0498 126.393 18.4805 125.094 19.6816C123.805 20.873 122.164 21.4688 120.172 21.4688C119.547 21.4688 118.956 21.4053 118.399 21.2783C117.843 21.1514 117.145 20.9121 116.305 20.5605C115.836 20.3652 115.45 20.2676 115.147 20.2676C114.894 20.2676 114.625 20.3652 114.342 20.5605C114.059 20.7559 113.829 21.0537 113.653 21.4541H113.111V13.9541H113.653C114.083 16.0635 114.908 17.6748 116.129 18.7881C117.359 19.8916 118.683 20.4434 120.099 20.4434C121.192 20.4434 122.062 20.1455 122.706 19.5498C123.36 18.9541 123.688 18.2607 123.688 17.4697C123.688 17.001 123.561 16.5469 123.307 16.1074C123.062 15.668 122.687 15.2529 122.179 14.8623C121.671 14.4619 120.772 13.9443 119.483 13.3096C117.677 12.4209 116.378 11.6641 115.587 11.0391C114.796 10.4141 114.186 9.71582 113.756 8.94434C113.336 8.17285 113.126 7.32324 113.126 6.39551C113.126 4.81348 113.707 3.46582 114.869 2.35254C116.031 1.23926 117.496 0.682617 119.264 0.682617C119.908 0.682617 120.533 0.760742 121.139 0.916992C121.598 1.03418 122.154 1.25391 122.809 1.57617C123.473 1.88867 123.937 2.04492 124.2 2.04492C124.454 2.04492 124.654 1.9668 124.801 1.81055C124.947 1.6543 125.084 1.27832 125.211 0.682617H125.65Z" fill="#232323"/>
<path d="M147.184 1.13672V6.5127H146.656C146.344 5.27246 145.997 4.38379 145.616 3.84668C145.235 3.2998 144.713 2.86523 144.049 2.54297C143.678 2.36719 143.028 2.2793 142.101 2.2793H140.621V17.6016C140.621 18.6172 140.675 19.252 140.782 19.5059C140.899 19.7598 141.119 19.9844 141.441 20.1797C141.773 20.3652 142.223 20.458 142.789 20.458H143.448V21H133.048V20.458H133.707C134.283 20.458 134.747 20.3555 135.099 20.1504C135.353 20.0137 135.553 19.7793 135.699 19.4473C135.807 19.2129 135.86 18.5977 135.86 17.6016V2.2793H134.425C133.087 2.2793 132.115 2.5625 131.51 3.12891C130.66 3.91992 130.123 5.04785 129.898 6.5127H129.342V1.13672H147.184Z" fill="#232323"/>
<path d="M166.021 15.3457H159.005L158.17 17.2793C157.896 17.9238 157.76 18.4561 157.76 18.876C157.76 19.4326 157.984 19.8428 158.434 20.1064C158.697 20.2627 159.347 20.3799 160.382 20.458V21H153.775V20.458C154.488 20.3506 155.074 20.0576 155.533 19.5791C155.992 19.0908 156.559 18.0898 157.232 16.5762L164.337 0.726562H164.615L171.778 17.0156C172.462 18.5586 173.023 19.5303 173.463 19.9307C173.795 20.2334 174.264 20.4092 174.869 20.458V21H165.26V20.458H165.655C166.427 20.458 166.969 20.3506 167.281 20.1357C167.496 19.9795 167.604 19.7549 167.604 19.4619C167.604 19.2861 167.574 19.1055 167.516 18.9199C167.496 18.832 167.35 18.4658 167.076 17.8213L166.021 15.3457ZM165.523 14.2617L162.564 7.4209L159.518 14.2617H165.523Z" fill="#232323"/>
<path d="M192.711 1.13672V1.67871C191.988 1.7959 191.344 2.18164 190.777 2.83594C190.367 3.32422 189.757 4.47168 188.946 6.27832L182.105 21.4541H181.622L174.811 5.66309C173.99 3.75879 173.438 2.64062 173.155 2.30859C172.882 1.97656 172.359 1.7666 171.588 1.67871V1.13672H181.109V1.67871H180.787C179.928 1.67871 179.342 1.78613 179.029 2.00098C178.805 2.14746 178.692 2.3623 178.692 2.64551C178.692 2.82129 178.731 3.03125 178.81 3.27539C178.888 3.50977 179.151 4.14941 179.601 5.19434L183.834 15.082L187.76 6.27832C188.229 5.21387 188.517 4.50098 188.624 4.13965C188.731 3.77832 188.785 3.4707 188.785 3.2168C188.785 2.92383 188.707 2.66504 188.551 2.44043C188.395 2.21582 188.165 2.04492 187.862 1.92773C187.442 1.76172 186.886 1.67871 186.192 1.67871V1.13672H192.711Z" fill="#232323"/>
<path d="M201.207 2.2793V10.3652H201.603C202.862 10.3652 203.775 9.96973 204.342 9.17871C204.908 8.3877 205.27 7.2207 205.426 5.67773H205.982V16.0781H205.426C205.309 14.9453 205.06 14.0176 204.679 13.2949C204.308 12.5723 203.873 12.0889 203.375 11.8447C202.877 11.5908 202.154 11.4639 201.207 11.4639V17.0596C201.207 18.1533 201.251 18.8223 201.339 19.0664C201.437 19.3105 201.612 19.5107 201.866 19.667C202.12 19.8232 202.53 19.9014 203.097 19.9014H204.283C206.139 19.9014 207.623 19.4717 208.736 18.6123C209.859 17.7529 210.665 16.4443 211.153 14.6865H211.695L210.802 21H193.634V20.458H194.293C194.869 20.458 195.333 20.3555 195.685 20.1504C195.938 20.0137 196.134 19.7793 196.271 19.4473C196.378 19.2129 196.432 18.5977 196.432 17.6016V4.53516C196.432 3.63672 196.407 3.08496 196.358 2.87988C196.261 2.53809 196.08 2.27441 195.816 2.08887C195.445 1.81543 194.938 1.67871 194.293 1.67871H193.634V1.13672H210.26V7.01074H209.703C209.42 5.5752 209.02 4.54492 208.502 3.91992C207.994 3.29492 207.271 2.83594 206.334 2.54297C205.787 2.36719 204.762 2.2793 203.258 2.2793H201.207Z" fill="#232323"/>
<path d="M220.514 1.13672L230.313 13.4561V4.91602C230.313 3.72461 230.143 2.91895 229.801 2.49902C229.332 1.93262 228.546 1.65918 227.442 1.67871V1.13672H234.005V1.67871C233.165 1.78613 232.599 1.92773 232.306 2.10352C232.022 2.26953 231.798 2.54785 231.632 2.93848C231.476 3.31934 231.397 3.97852 231.397 4.91602V21.4541H230.899L217.467 4.91602V17.543C217.467 18.6855 217.726 19.457 218.243 19.8574C218.771 20.2578 219.371 20.458 220.045 20.458H220.514V21H213.468V20.458C214.562 20.4482 215.323 20.2236 215.753 19.7842C216.183 19.3447 216.397 18.5977 216.397 17.543V3.52441L215.973 2.99707C215.553 2.46973 215.182 2.12305 214.859 1.95703C214.537 1.79102 214.073 1.69824 213.468 1.67871V1.13672H220.514Z" fill="#232323"/>
<path d="M235.426 1.13672H245.68V1.67871H245.167C244.396 1.67871 243.863 1.76172 243.57 1.92773C243.287 2.08398 243.082 2.30371 242.955 2.58691C242.838 2.87012 242.779 3.57812 242.779 4.71094V14.4375C242.779 16.2148 242.911 17.3916 243.175 17.9678C243.448 18.5439 243.893 19.0225 244.508 19.4033C245.123 19.7842 245.899 19.9746 246.837 19.9746C247.911 19.9746 248.824 19.7354 249.576 19.2568C250.338 18.7686 250.904 18.0996 251.275 17.25C251.656 16.4004 251.847 14.9209 251.847 12.8115V4.71094C251.847 3.82227 251.754 3.1875 251.568 2.80664C251.383 2.42578 251.148 2.16211 250.865 2.01562C250.426 1.79102 249.806 1.67871 249.005 1.67871V1.13672H255.875V1.67871H255.465C254.908 1.67871 254.444 1.79102 254.073 2.01562C253.702 2.24023 253.434 2.57715 253.268 3.02637C253.141 3.33887 253.077 3.90039 253.077 4.71094V12.2549C253.077 14.5889 252.921 16.2734 252.608 17.3086C252.306 18.3438 251.559 19.2959 250.367 20.165C249.176 21.0342 247.55 21.4688 245.489 21.4688C243.771 21.4688 242.442 21.2393 241.505 20.7803C240.226 20.1553 239.322 19.3545 238.795 18.3779C238.268 17.4014 238.004 16.0879 238.004 14.4375V4.71094C238.004 3.56836 237.94 2.86035 237.813 2.58691C237.687 2.30371 237.467 2.0791 237.154 1.91309C236.842 1.74707 236.266 1.66895 235.426 1.67871V1.13672Z" fill="#232323"/>
<path d="M264.576 2.2793V10.3652H264.972C266.231 10.3652 267.145 9.96973 267.711 9.17871C268.277 8.3877 268.639 7.2207 268.795 5.67773H269.352V16.0781H268.795C268.678 14.9453 268.429 14.0176 268.048 13.2949C267.677 12.5723 267.242 12.0889 266.744 11.8447C266.246 11.5908 265.523 11.4639 264.576 11.4639V17.0596C264.576 18.1533 264.62 18.8223 264.708 19.0664C264.806 19.3105 264.981 19.5107 265.235 19.667C265.489 19.8232 265.899 19.9014 266.466 19.9014H267.652C269.508 19.9014 270.992 19.4717 272.105 18.6123C273.229 17.7529 274.034 16.4443 274.522 14.6865H275.064L274.171 21H257.003V20.458H257.662C258.238 20.458 258.702 20.3555 259.054 20.1504C259.308 20.0137 259.503 19.7793 259.64 19.4473C259.747 19.2129 259.801 18.5977 259.801 17.6016V4.53516C259.801 3.63672 259.776 3.08496 259.728 2.87988C259.63 2.53809 259.449 2.27441 259.186 2.08887C258.814 1.81543 258.307 1.67871 257.662 1.67871H257.003V1.13672H273.629V7.01074H273.072C272.789 5.5752 272.389 4.54492 271.871 3.91992C271.363 3.29492 270.641 2.83594 269.703 2.54297C269.156 2.36719 268.131 2.2793 266.627 2.2793H264.576Z" fill="#232323"/>
<path d="M100.182 42.416H94.4883V40.3945H100.182V42.416Z" fill="#232323"/>
<path d="M106.109 33.5195V38.9102H106.373C107.213 38.9102 107.822 38.6465 108.199 38.1191C108.577 37.5918 108.818 36.8138 108.922 35.7852H109.293V42.7188H108.922C108.844 41.9635 108.678 41.3451 108.424 40.8633C108.176 40.3815 107.887 40.0592 107.555 39.8965C107.223 39.7272 106.741 39.6426 106.109 39.6426V43.373C106.109 44.1022 106.139 44.5482 106.197 44.7109C106.262 44.8737 106.38 45.0072 106.549 45.1113C106.718 45.2155 106.992 45.2676 107.369 45.2676H108.16C109.397 45.2676 110.387 44.9811 111.129 44.4082C111.878 43.8353 112.415 42.9629 112.74 41.791H113.102L112.506 46H101.061V45.6387H101.5C101.884 45.6387 102.193 45.5703 102.428 45.4336C102.597 45.3424 102.727 45.1862 102.818 44.9648C102.89 44.8086 102.926 44.3984 102.926 43.7344V35.0234C102.926 34.4245 102.91 34.0566 102.877 33.9199C102.812 33.6921 102.691 33.5163 102.516 33.3926C102.268 33.2103 101.93 33.1191 101.5 33.1191H101.061V32.7578H112.145V36.6738H111.773C111.585 35.7168 111.318 35.0299 110.973 34.6133C110.634 34.1966 110.152 33.8906 109.527 33.6953C109.163 33.5781 108.479 33.5195 107.477 33.5195H106.109Z" fill="#232323"/>
<path d="M123.395 32.4551L123.502 36.8691H123.102C122.913 35.7624 122.447 34.8737 121.705 34.2031C120.969 33.526 120.172 33.1875 119.312 33.1875C118.648 33.1875 118.121 33.3665 117.73 33.7246C117.346 34.0762 117.154 34.4831 117.154 34.9453C117.154 35.2383 117.223 35.4987 117.359 35.7266C117.548 36.0326 117.851 36.3353 118.268 36.6348C118.574 36.8496 119.28 37.2305 120.387 37.7773C121.936 38.5391 122.981 39.2585 123.521 39.9355C124.055 40.6126 124.322 41.3874 124.322 42.2598C124.322 43.3665 123.889 44.3203 123.023 45.1211C122.164 45.9154 121.07 46.3125 119.742 46.3125C119.326 46.3125 118.932 46.2702 118.561 46.1855C118.189 46.1009 117.724 45.9414 117.164 45.707C116.852 45.5768 116.594 45.5117 116.393 45.5117C116.223 45.5117 116.044 45.5768 115.855 45.707C115.667 45.8372 115.514 46.0358 115.396 46.3027H115.035V41.3027H115.396C115.683 42.709 116.233 43.7832 117.047 44.5254C117.867 45.2611 118.749 45.6289 119.693 45.6289C120.423 45.6289 121.002 45.4303 121.432 45.0332C121.868 44.6361 122.086 44.1738 122.086 43.6465C122.086 43.334 122.001 43.0312 121.832 42.7383C121.669 42.4453 121.419 42.1686 121.08 41.9082C120.742 41.6413 120.143 41.2962 119.283 40.873C118.079 40.2806 117.213 39.776 116.686 39.3594C116.158 38.9427 115.751 38.4772 115.465 37.9629C115.185 37.4486 115.045 36.8822 115.045 36.2637C115.045 35.209 115.432 34.3105 116.207 33.5684C116.982 32.8262 117.958 32.4551 119.137 32.4551C119.566 32.4551 119.983 32.5072 120.387 32.6113C120.693 32.6895 121.064 32.8359 121.5 33.0508C121.943 33.2591 122.252 33.3633 122.428 33.3633C122.597 33.3633 122.73 33.3112 122.828 33.207C122.926 33.1029 123.017 32.8522 123.102 32.4551H123.395Z" fill="#232323"/>
<path d="M137.75 32.7578V36.3418H137.398C137.19 35.515 136.959 34.9225 136.705 34.5645C136.451 34.1999 136.103 33.9102 135.66 33.6953C135.413 33.5781 134.98 33.5195 134.361 33.5195H133.375V43.7344C133.375 44.4115 133.411 44.8346 133.482 45.0039C133.561 45.1732 133.707 45.3229 133.922 45.4531C134.143 45.5768 134.443 45.6387 134.82 45.6387H135.26V46H128.326V45.6387H128.766C129.15 45.6387 129.459 45.5703 129.693 45.4336C129.863 45.3424 129.996 45.1862 130.094 44.9648C130.165 44.8086 130.201 44.3984 130.201 43.7344V33.5195H129.244C128.352 33.5195 127.704 33.7083 127.301 34.0859C126.734 34.6133 126.376 35.3652 126.227 36.3418H125.855V32.7578H137.75Z" fill="#232323"/>
<path d="M151.383 46H143.59V45.7852C145.979 42.9401 147.428 41.026 147.936 40.043C148.45 39.0599 148.707 38.0996 148.707 37.1621C148.707 36.4785 148.495 35.9121 148.072 35.4629C147.649 35.0072 147.132 34.7793 146.52 34.7793C145.517 34.7793 144.739 35.2806 144.186 36.2832L143.824 36.1562C144.176 34.9062 144.71 33.9818 145.426 33.3828C146.142 32.7839 146.969 32.4844 147.906 32.4844C148.577 32.4844 149.189 32.6406 149.742 32.9531C150.296 33.2656 150.729 33.6953 151.041 34.2422C151.354 34.7826 151.51 35.2904 151.51 35.7656C151.51 36.6315 151.269 37.5104 150.787 38.4023C150.13 39.6068 148.694 41.2865 146.48 43.4414H149.342C150.045 43.4414 150.501 43.4121 150.709 43.3535C150.924 43.2949 151.1 43.1973 151.236 43.0605C151.373 42.9173 151.552 42.6211 151.773 42.1719H152.125L151.383 46Z" fill="#232323"/>
<path d="M162.369 39.3789C162.369 40.7005 162.184 41.9342 161.812 43.0801C161.591 43.7832 161.292 44.3594 160.914 44.8086C160.543 45.2578 160.12 45.6159 159.645 45.8828C159.169 46.1432 158.652 46.2734 158.092 46.2734C157.454 46.2734 156.878 46.1107 156.363 45.7852C155.849 45.4596 155.393 44.9941 154.996 44.3887C154.71 43.946 154.459 43.3568 154.244 42.6211C153.964 41.625 153.824 40.5964 153.824 39.5352C153.824 38.0964 154.026 36.7747 154.43 35.5703C154.762 34.5742 155.266 33.8125 155.943 33.2852C156.62 32.7513 157.337 32.4844 158.092 32.4844C158.86 32.4844 159.576 32.748 160.24 33.2754C160.911 33.7962 161.402 34.4993 161.715 35.3848C162.151 36.6022 162.369 37.9336 162.369 39.3789ZM159.361 39.3594C159.361 37.0417 159.348 35.6908 159.322 35.3066C159.257 34.4017 159.101 33.7897 158.854 33.4707C158.691 33.2624 158.427 33.1582 158.062 33.1582C157.783 33.1582 157.561 33.2363 157.398 33.3926C157.158 33.6204 156.995 34.0241 156.91 34.6035C156.826 35.1764 156.783 37.1849 156.783 40.6289C156.783 42.5039 156.848 43.7604 156.979 44.3984C157.076 44.8607 157.216 45.1699 157.398 45.3262C157.581 45.4824 157.822 45.5605 158.121 45.5605C158.447 45.5605 158.691 45.4564 158.854 45.248C159.127 44.8835 159.283 44.3203 159.322 43.5586L159.361 39.3594Z" fill="#232323"/>
<path d="M171.383 46H163.59V45.7852C165.979 42.9401 167.428 41.026 167.936 40.043C168.45 39.0599 168.707 38.0996 168.707 37.1621C168.707 36.4785 168.495 35.9121 168.072 35.4629C167.649 35.0072 167.132 34.7793 166.52 34.7793C165.517 34.7793 164.739 35.2806 164.186 36.2832L163.824 36.1562C164.176 34.9062 164.71 33.9818 165.426 33.3828C166.142 32.7839 166.969 32.4844 167.906 32.4844C168.577 32.4844 169.189 32.6406 169.742 32.9531C170.296 33.2656 170.729 33.6953 171.041 34.2422C171.354 34.7826 171.51 35.2904 171.51 35.7656C171.51 36.6315 171.269 37.5104 170.787 38.4023C170.13 39.6068 168.694 41.2865 166.48 43.4414H169.342C170.045 43.4414 170.501 43.4121 170.709 43.3535C170.924 43.2949 171.1 43.1973 171.236 43.0605C171.373 42.9173 171.552 42.6211 171.773 42.1719H172.125L171.383 46Z" fill="#232323"/>
<path d="M182.369 39.3789C182.369 40.7005 182.184 41.9342 181.812 43.0801C181.591 43.7832 181.292 44.3594 180.914 44.8086C180.543 45.2578 180.12 45.6159 179.645 45.8828C179.169 46.1432 178.652 46.2734 178.092 46.2734C177.454 46.2734 176.878 46.1107 176.363 45.7852C175.849 45.4596 175.393 44.9941 174.996 44.3887C174.71 43.946 174.459 43.3568 174.244 42.6211C173.964 41.625 173.824 40.5964 173.824 39.5352C173.824 38.0964 174.026 36.7747 174.43 35.5703C174.762 34.5742 175.266 33.8125 175.943 33.2852C176.62 32.7513 177.337 32.4844 178.092 32.4844C178.86 32.4844 179.576 32.748 180.24 33.2754C180.911 33.7962 181.402 34.4993 181.715 35.3848C182.151 36.6022 182.369 37.9336 182.369 39.3789ZM179.361 39.3594C179.361 37.0417 179.348 35.6908 179.322 35.3066C179.257 34.4017 179.101 33.7897 178.854 33.4707C178.691 33.2624 178.427 33.1582 178.062 33.1582C177.783 33.1582 177.561 33.2363 177.398 33.3926C177.158 33.6204 176.995 34.0241 176.91 34.6035C176.826 35.1764 176.783 37.1849 176.783 40.6289C176.783 42.5039 176.848 43.7604 176.979 44.3984C177.076 44.8607 177.216 45.1699 177.398 45.3262C177.581 45.4824 177.822 45.5605 178.121 45.5605C178.447 45.5605 178.691 45.4564 178.854 45.248C179.127 44.8835 179.283 44.3203 179.322 43.5586L179.361 39.3594Z" fill="#232323"/>
<path d="M189.283 42.416H183.59V40.3945H189.283V42.416Z" fill="#232323"/>
</svg>
